<svg xmlns="http://www.w3.org/2000/svg" viewBox="270.67 255 48 34">
  <path fill="#424242" d="M286.1 260.1h30.85c.95 0 1.72-.76 1.72-1.7s-.77-1.7-1.72-1.7H286.1c-.95 0-1.72.76-1.72 1.7s.77 1.7 1.72 1.7zm-12 8.5a3.41 3.41 0 0 0-3.43 3.4c0 1.88 1.53 3.4 3.43 3.4s3.42-1.52 3.42-3.4-1.53-3.4-3.42-3.4zm0 13.6a3.41 3.41 0 0 0-3.43 3.4c0 1.88 1.53 3.4 3.43 3.4s3.42-1.52 3.42-3.4-1.53-3.4-3.42-3.4zm42.85-11.9H286.1a1.7 1.7 0 0 0-1.72 1.7c0 .94.77 1.7 1.72 1.7h30.85a1.7 1.7 0 0 0 1.72-1.7c0-.94-.77-1.7-1.72-1.7zM274.1 255a3.41 3.41 0 0 0-3.43 3.4c0 1.88 1.53 3.4 3.43 3.4s3.42-1.52 3.42-3.4-1.53-3.4-3.42-3.4zm42.85 28.9H286.1a1.7 1.7 0 0 0-1.72 1.7c0 .94.77 1.7 1.72 1.7h30.85a1.7 1.7 0 0 0 1.72-1.7c0-.94-.77-1.7-1.72-1.7z"/>
</svg>
