<svg xmlns="http://www.w3.org/2000/svg" viewBox="0 0 98.6 100">
	<path fill="#FFFFFF" d="M49.3,26.299c7.724,0,14.583,3.695,18.91,9.415l-8.244,8.36h25.837V17.872l-8.174,8.29
		c-6.791-8.065-16.96-13.193-28.329-13.193c-18.435,0-33.717,13.476-36.554,31.106h13.601C28.978,33.852,38.256,26.299,49.3,26.299z
		"/>
	<path fill="#FFFFFF" d="M49.3,73.701c-7.562,0-14.296-3.541-18.635-9.056l8.708-8.72H12.766v26.643l8.439-8.45
		c6.789,7.905,16.856,12.913,28.095,12.913c18.434,0,33.716-13.476,36.553-31.105h-13.6C69.621,66.148,60.342,73.701,49.3,73.701z"
		/>
</svg>
