<svg xmlns="http://www.w3.org/2000/svg" viewBox="270.667 255.002 48 34">
    <path fill="#424242" d="M286.096,260.102h30.857c0.947,0,1.714-0.76,1.714-1.699s-0.767-1.7-1.714-1.7h-30.857
	c-0.947,0-1.715,0.761-1.715,1.7S285.148,260.102,286.096,260.102z M274.096,268.602c-1.894,0-3.429,1.523-3.429,3.4
	c0,1.878,1.535,3.4,3.429,3.4s3.429-1.522,3.429-3.4C277.524,270.125,275.989,268.602,274.096,268.602z M274.096,282.202
	c-1.894,0-3.429,1.522-3.429,3.399c0,1.878,1.535,3.4,3.429,3.4s3.429-1.522,3.429-3.4
	C277.524,283.725,275.989,282.202,274.096,282.202z M316.953,270.302h-30.857c-0.947,0-1.715,0.763-1.715,1.7
	c0,0.939,0.768,1.7,1.715,1.7h30.857c0.947,0,1.714-0.761,1.714-1.7C318.667,271.064,317.9,270.302,316.953,270.302z
	 M274.096,255.002c-1.894,0-3.429,1.522-3.429,3.4c0,1.877,1.535,3.399,3.429,3.399s3.429-1.522,3.429-3.399
	C277.524,256.524,275.989,255.002,274.096,255.002z M316.953,283.902h-30.857c-0.947,0-1.715,0.762-1.715,1.699
	c0,0.939,0.768,1.7,1.715,1.7h30.857c0.947,0,1.714-0.761,1.714-1.7C318.667,284.664,317.9,283.902,316.953,283.902z"/>
</svg>
