<svg xmlns="http://www.w3.org/2000/svg" viewBox="242.5 195.406 46 46">
    <path fill="#424242" d="M255.438,209.781c-0.794,0-1.438,0.645-1.438,1.438v14.375c0,0.795,0.644,1.438,1.438,1.438
	s1.438-0.643,1.438-1.438v-14.375C256.875,210.426,256.231,209.781,255.438,209.781z M268.375,215.531
	c0-0.793-0.644-1.438-1.438-1.438s-1.438,0.645-1.438,1.438v8.625c0,0.795,0.644,1.438,1.438,1.438s1.438-0.643,1.438-1.438V215.531
	 M277,195.406l-11.5,8.625l-11.5-4.312l-11.5,7.188v34.5l11.5-7.188l11.5,4.312l11.5-8.625l11.5,8.625v-34.5L277,195.406z
	 M285.625,233.5L277,227.031l-11.5,8.625l-11.5-4.312l-8.625,5.391v-28.75l8.625-5.391l11.5,4.312l11.5-8.625l8.625,6.469V233.5z
	 M277,219.844c0,0.795,0.644,1.438,1.438,1.438s1.438-0.643,1.438-1.438v-11.5c0-0.793-0.644-1.438-1.438-1.438
	S277,207.551,277,208.344V219.844z"/>
</svg>
